<svg xmlns="http://www.w3.org/2000/svg" xmlns:xlink="http://www.w3.org/1999/xlink" width="28" zoomAndPan="magnify" viewBox="0 0 375 374.999991" height="28" preserveAspectRatio="xMidYMid meet" version="1.0"><defs><g/><clipPath id="895bbc8ee6"><path d="M 13.015625 104 L 97 104 L 97 273 L 13.015625 273 Z M 13.015625 104 " clip-rule="nonzero"/></clipPath></defs><rect x="-37.5" width="450" fill="#ffffff" y="-37.499999" height="449.999989" fill-opacity="1"/><rect x="-37.5" width="450" fill="#0071bc" y="-37.499999" height="449.999989" fill-opacity="1"/><g clip-path="url(#895bbc8ee6)"><path fill="#ffffff" d="M 80.371094 272.378906 C 74.507812 272.378906 67.785156 269.378906 63.839844 262.335938 C 57.164062 264.054688 49.644531 261.804688 44.101562 256.273438 C 39.371094 251.550781 37.238281 245.476562 38.101562 239.703125 C 35.519531 239.675781 32.886719 238.996094 30.320312 237.679688 C 26.757812 235.847656 23.601562 232.882812 21.433594 229.328125 C 19.277344 225.792969 18.214844 221.914062 18.363281 218.109375 C 18.488281 214.84375 19.515625 211.710938 21.367188 208.898438 C 18.894531 207.320312 16.894531 205.140625 15.488281 202.476562 C 13.777344 199.222656 13.015625 195.410156 13.292969 191.445312 C 13.792969 184.34375 17.464844 178.34375 22.8125 175.4375 C 20.253906 171.40625 19.34375 165.285156 20.765625 159.726562 C 22.542969 152.773438 27.582031 147.964844 34.800781 146.195312 C 32.726562 139.480469 34.417969 132.191406 39.527344 126.53125 C 44.871094 120.609375 52.589844 118.035156 59.902344 119.523438 C 60.507812 115.238281 62.332031 111.609375 65.265625 108.914062 C 68.488281 105.949219 72.859375 104.316406 77.574219 104.316406 C 82.386719 104.316406 87.121094 106.078125 90.5625 109.140625 C 93.320312 111.597656 96.605469 116.046875 96.605469 123.304688 L 96.605469 257.515625 C 96.605469 257.648438 96.59375 257.78125 96.570312 257.910156 C 95.308594 265.8125 89.902344 271.304688 82.460938 272.25 C 81.78125 272.335938 81.082031 272.378906 80.371094 272.378906 Z M 65.125 256.746094 C 66.097656 256.746094 67.019531 257.3125 67.433594 258.257812 C 70.519531 265.339844 76.886719 267.878906 81.824219 267.253906 C 86.976562 266.597656 90.609375 262.886719 91.566406 257.308594 L 91.566406 123.304688 C 91.566406 114.148438 84.527344 109.355469 77.574219 109.355469 C 74.125 109.355469 70.964844 110.515625 68.675781 112.621094 C 66.085938 115.003906 64.714844 118.523438 64.714844 122.800781 C 64.714844 123.628906 64.308594 124.402344 63.628906 124.875 C 62.949219 125.34375 62.082031 125.449219 61.308594 125.15625 C 55.078125 122.800781 47.996094 124.667969 43.265625 129.90625 C 39.757812 133.792969 37.195312 140.328125 40.535156 147.003906 C 40.902344 147.738281 40.886719 148.605469 40.496094 149.332031 C 40.105469 150.054688 39.386719 150.539062 38.570312 150.632812 C 29.820312 151.632812 26.710938 156.808594 25.644531 160.976562 C 24.195312 166.648438 26.011719 172.601562 28.554688 174.394531 C 29.359375 174.964844 29.761719 175.953125 29.578125 176.921875 C 29.394531 177.890625 28.660156 178.664062 27.703125 178.898438 C 21.742188 180.363281 18.695312 186.433594 18.320312 191.796875 C 17.964844 196.867188 19.835938 203.183594 26.148438 205.710938 C 26.914062 206.015625 27.480469 206.679688 27.667969 207.484375 C 27.851562 208.289062 27.628906 209.132812 27.074219 209.746094 C 22.691406 214.554688 22.191406 220.894531 25.734375 226.703125 C 29.285156 232.523438 35.636719 235.730469 40.84375 234.328125 C 41.765625 234.078125 42.75 234.371094 43.386719 235.089844 C 44.019531 235.804688 44.191406 236.816406 43.832031 237.703125 C 41.8125 242.691406 43.242188 248.296875 47.660156 252.707031 C 52.394531 257.433594 58.878906 259.089844 64.171875 256.929688 C 64.484375 256.804688 64.804688 256.746094 65.125 256.746094 Z M 94.085938 257.515625 Z M 94.085938 257.515625 " fill-opacity="1" fill-rule="nonzero"/></g><path fill="#ffffff" d="M 112.726562 255.703125 L 116.816406 255.703125 C 118.140625 255.703125 119.214844 254.628906 119.214844 253.300781 L 119.214844 249.214844 C 119.214844 247.890625 118.140625 246.816406 116.816406 246.816406 L 112.726562 246.816406 C 111.402344 246.816406 110.328125 247.890625 110.328125 249.214844 L 110.328125 253.300781 C 110.328125 254.628906 111.402344 255.703125 112.726562 255.703125 Z M 112.726562 255.703125 " fill-opacity="1" fill-rule="nonzero"/><path fill="#ffffff" d="M 140.175781 233.417969 C 138.851562 233.417969 137.777344 232.34375 137.777344 231.019531 L 137.777344 217.125 C 137.777344 216.527344 137.996094 215.984375 138.355469 215.566406 L 126.710938 202.332031 C 126.679688 202.332031 126.652344 202.335938 126.621094 202.335938 L 112.726562 202.335938 C 111.402344 202.335938 110.328125 201.261719 110.328125 199.933594 L 110.328125 186.039062 C 110.328125 184.714844 111.402344 183.640625 112.726562 183.640625 L 126.621094 183.640625 C 126.71875 183.640625 126.8125 183.648438 126.90625 183.660156 L 136.871094 172.621094 C 136.621094 172.242188 136.476562 171.789062 136.476562 171.304688 L 136.476562 157.410156 C 136.476562 157.371094 136.480469 157.332031 136.480469 157.292969 L 127.796875 144.890625 C 127.550781 144.996094 127.277344 145.054688 126.992188 145.054688 L 115.238281 145.054688 C 114.117188 145.054688 113.207031 144.148438 113.207031 143.027344 L 113.207031 131.273438 C 113.207031 130.152344 114.117188 129.242188 115.238281 129.242188 L 126.992188 129.242188 C 127.101562 129.242188 127.207031 129.253906 127.308594 129.269531 L 136.566406 119.394531 C 133.460938 100.894531 104.953125 103.367188 104.953125 123.304688 L 104.953125 257.515625 C 107.464844 273.234375 127.449219 274.097656 133.914062 259.261719 C 146.527344 264.40625 162.128906 250.875 157.914062 237.800781 L 154.058594 233.417969 Z M 114.769531 159.722656 C 114.769531 158.394531 115.84375 157.320312 117.171875 157.320312 L 124.914062 157.320312 C 126.242188 157.320312 127.316406 158.394531 127.316406 159.722656 L 127.316406 167.464844 C 127.316406 168.792969 126.242188 169.867188 124.914062 169.867188 L 117.171875 169.867188 C 115.84375 169.867188 114.769531 168.792969 114.769531 167.464844 Z M 140.917969 246.199219 C 140.917969 247.527344 139.84375 248.601562 138.519531 248.601562 L 134.433594 248.601562 C 133.105469 248.601562 132.03125 247.527344 132.03125 246.199219 L 132.03125 242.113281 C 132.03125 241.886719 132.066406 241.667969 132.125 241.460938 L 125.007812 233.414062 C 124.976562 233.414062 124.945312 233.417969 124.914062 233.417969 L 117.171875 233.417969 C 115.84375 233.417969 114.769531 232.34375 114.769531 231.019531 L 114.769531 223.273438 C 114.769531 221.949219 115.84375 220.875 117.171875 220.875 L 124.914062 220.875 C 126.242188 220.875 127.316406 221.949219 127.316406 223.273438 L 127.316406 231.019531 C 127.316406 231.347656 127.25 231.664062 127.128906 231.949219 L 134.027344 239.75 C 134.160156 239.726562 134.292969 239.714844 134.433594 239.714844 L 138.519531 239.714844 C 139.84375 239.714844 140.917969 240.789062 140.917969 242.113281 Z M 140.917969 246.199219 " fill-opacity="1" fill-rule="nonzero"/><path fill="#ffffff" d="M 170.773438 205.546875 L 166.683594 205.546875 C 165.359375 205.546875 164.285156 204.472656 164.285156 203.148438 L 164.285156 199.058594 C 164.285156 197.734375 165.359375 196.660156 166.683594 196.660156 L 170.773438 196.660156 C 172.097656 196.660156 173.171875 197.734375 173.171875 199.058594 L 173.171875 203.148438 C 173.171875 203.394531 173.132812 203.632812 173.066406 203.855469 L 175.84375 207.0625 C 187.425781 200.289062 184.789062 180.394531 172.683594 176.660156 L 160.433594 188.007812 C 160.4375 188.070312 160.445312 188.132812 160.445312 188.191406 L 160.445312 195.9375 C 160.445312 197.265625 159.367188 198.339844 158.042969 198.339844 L 150.296875 198.339844 C 148.972656 198.339844 147.898438 197.265625 147.898438 195.9375 L 147.898438 188.191406 C 147.898438 186.867188 148.972656 185.792969 150.296875 185.792969 L 158.042969 185.792969 C 158.34375 185.792969 158.625 185.851562 158.890625 185.949219 L 175.699219 170.378906 C 177.933594 162.546875 175.382812 150.652344 162.226562 148.34375 L 154.949219 156.40625 C 155.089844 156.710938 155.171875 157.050781 155.171875 157.410156 L 155.171875 171.304688 C 155.171875 172.628906 154.097656 173.703125 152.769531 173.703125 L 139.339844 173.703125 L 128.894531 185.277344 C 128.976562 185.515625 129.023438 185.773438 129.023438 186.039062 L 129.023438 199.933594 C 129.023438 200.265625 128.953125 200.582031 128.832031 200.867188 L 141.023438 214.722656 L 154.070312 214.722656 C 155.398438 214.722656 156.472656 215.800781 156.472656 217.125 L 156.472656 231.019531 C 156.472656 231.378906 156.390625 231.722656 156.246094 232.027344 L 160.773438 237.175781 C 171.734375 237.15625 182.636719 223.128906 176.292969 211.488281 L 171.121094 205.519531 C 171.007812 205.535156 170.890625 205.546875 170.773438 205.546875 Z M 170.773438 205.546875 " fill-opacity="1" fill-rule="nonzero"/><path fill="#ffffff" d="M 129.023438 131.273438 L 129.023438 142.175781 L 138.101562 155.140625 C 138.34375 155.058594 138.605469 155.011719 138.875 155.011719 L 152.761719 155.011719 L 162.039062 144.730469 C 165.597656 131.136719 151.007812 117.503906 136.902344 122.78125 L 129.015625 131.191406 C 129.019531 131.21875 129.023438 131.246094 129.023438 131.273438 Z M 142.222656 136.433594 C 142.222656 135.109375 143.296875 134.035156 144.621094 134.035156 L 148.707031 134.035156 C 150.035156 134.035156 151.109375 135.109375 151.109375 136.433594 L 151.109375 140.519531 C 151.109375 141.847656 150.035156 142.921875 148.707031 142.921875 L 144.621094 142.921875 C 143.296875 142.921875 142.222656 141.847656 142.222656 140.519531 Z M 142.222656 136.433594 " fill-opacity="1" fill-rule="nonzero"/><path fill="#ffffff" d="M 73.074219 136.214844 C 72.9375 136.214844 72.800781 136.203125 72.660156 136.179688 C 67.59375 135.339844 63.957031 133.199219 61.859375 129.820312 C 59.546875 126.101562 59.265625 121.027344 61.046875 115.144531 C 61.449219 113.8125 62.855469 113.0625 64.1875 113.464844 C 65.515625 113.867188 66.269531 115.273438 65.867188 116.605469 C 64.519531 121.058594 64.613281 124.707031 66.136719 127.160156 C 67.4375 129.253906 69.910156 130.617188 73.484375 131.210938 C 74.855469 131.4375 75.785156 132.738281 75.558594 134.109375 C 75.351562 135.339844 74.285156 136.214844 73.074219 136.214844 Z M 73.074219 136.214844 " fill-opacity="1" fill-rule="nonzero"/><path fill="#ffffff" d="M 34.226562 181.71875 C 30.878906 181.71875 27.503906 180.242188 25.398438 178.308594 C 24.375 177.367188 24.304688 175.773438 25.246094 174.75 C 26.1875 173.726562 27.78125 173.65625 28.804688 174.597656 C 30.3125 175.980469 33.820312 177.382812 36.214844 176.292969 C 37.480469 175.714844 38.972656 176.273438 39.550781 177.539062 C 40.125 178.804688 39.566406 180.296875 38.300781 180.875 C 37.011719 181.464844 35.621094 181.71875 34.226562 181.71875 Z M 34.226562 181.71875 " fill-opacity="1" fill-rule="nonzero"/><path fill="#ffffff" d="M 65.113281 261.746094 C 64.066406 261.746094 63.089844 261.09375 62.730469 260.050781 C 62.277344 258.734375 62.972656 257.300781 64.289062 256.847656 C 67.148438 255.855469 72.257812 252.546875 73.269531 246.40625 C 73.492188 245.035156 74.789062 244.105469 76.164062 244.328125 C 77.535156 244.554688 78.464844 245.851562 78.238281 247.222656 C 77.019531 254.640625 71.179688 259.792969 65.933594 261.605469 C 65.664062 261.703125 65.382812 261.746094 65.113281 261.746094 Z M 65.113281 261.746094 " fill-opacity="1" fill-rule="nonzero"/><path fill="#ffffff" d="M 54.921875 159.839844 C 53.875 159.839844 52.894531 159.183594 52.539062 158.136719 C 50.210938 151.320312 42.359375 150.25 38.535156 150.636719 C 37.152344 150.773438 35.917969 149.765625 35.777344 148.382812 C 35.636719 147 36.644531 145.761719 38.03125 145.625 C 41.652344 145.257812 45.570312 145.878906 48.78125 147.324219 C 52.949219 149.203125 55.894531 152.378906 57.304688 156.507812 C 57.753906 157.824219 57.050781 159.257812 55.734375 159.707031 C 55.464844 159.796875 55.191406 159.839844 54.921875 159.839844 Z M 54.921875 159.839844 " fill-opacity="1" fill-rule="nonzero"/><path fill="#ffffff" d="M 29.648438 211.316406 C 27.324219 211.316406 25.359375 210.871094 24.183594 210.347656 C 22.914062 209.78125 22.34375 208.292969 22.910156 207.023438 C 23.480469 205.753906 24.96875 205.183594 26.238281 205.75 C 27.503906 206.3125 31.308594 206.746094 34.777344 205.234375 C 37.921875 203.871094 40.175781 201.25 41.480469 197.449219 C 41.929688 196.132812 43.363281 195.429688 44.679688 195.882812 C 45.996094 196.335938 46.695312 197.765625 46.242188 199.082031 C 44.488281 204.203125 41.214844 207.929688 36.789062 209.855469 C 34.324219 210.925781 31.828125 211.316406 29.648438 211.316406 Z M 29.648438 211.316406 " fill-opacity="1" fill-rule="nonzero"/><path fill="#ffffff" d="M 41.5 239.277344 C 41.195312 239.277344 40.886719 239.222656 40.585938 239.105469 C 39.289062 238.601562 38.648438 237.144531 39.152344 235.847656 C 41 231.085938 44.363281 227.128906 48.625 224.703125 C 52.945312 222.242188 57.6875 221.613281 61.976562 222.929688 C 63.304688 223.339844 64.050781 224.746094 63.644531 226.078125 C 63.234375 227.40625 61.828125 228.15625 60.496094 227.746094 C 54.191406 225.8125 46.722656 230.261719 43.847656 237.667969 C 43.460938 238.667969 42.507812 239.277344 41.5 239.277344 Z M 41.5 239.277344 " fill-opacity="1" fill-rule="nonzero"/><path fill="#ffffff" d="M 61.988281 181.582031 C 58.097656 181.582031 54.117188 180.160156 50.957031 177.582031 C 47.617188 174.851562 45.613281 171.105469 45.457031 167.300781 C 45.402344 165.910156 46.480469 164.738281 47.871094 164.679688 C 49.265625 164.628906 50.433594 165.703125 50.492188 167.09375 C 50.585938 169.460938 51.921875 171.863281 54.144531 173.679688 C 56.875 175.910156 60.421875 176.933594 63.636719 176.414062 C 67.371094 175.8125 71.972656 172.980469 72.65625 166.972656 C 72.816406 165.589844 74.0625 164.597656 75.445312 164.757812 C 76.828125 164.914062 77.820312 166.164062 77.664062 167.542969 C 77.238281 171.25 75.664062 174.53125 73.109375 177.039062 C 70.789062 179.316406 67.710938 180.859375 64.4375 181.386719 C 63.632812 181.515625 62.8125 181.582031 61.988281 181.582031 Z M 61.988281 181.582031 " fill-opacity="1" fill-rule="nonzero"/><path fill="#ffffff" d="M 71.339844 237.359375 C 69.933594 237.359375 68.507812 237.167969 67.085938 236.777344 C 65.746094 236.410156 64.953125 235.023438 65.324219 233.683594 C 65.691406 232.339844 67.078125 231.550781 68.417969 231.917969 C 74.058594 233.464844 78.257812 230.355469 80.140625 227.222656 C 81.765625 224.523438 82.125 220.964844 81.105469 217.710938 C 80.273438 215.058594 78.601562 213 76.515625 212.0625 C 75.246094 211.492188 74.679688 210.003906 75.25 208.734375 C 75.820312 207.464844 77.3125 206.898438 78.582031 207.46875 C 81.980469 208.996094 84.652344 212.179688 85.914062 216.207031 C 87.355469 220.8125 86.8125 225.902344 84.457031 229.816406 C 82.789062 232.59375 80.265625 234.828125 77.359375 236.101562 C 75.449219 236.941406 73.414062 237.359375 71.339844 237.359375 Z M 71.339844 237.359375 " fill-opacity="1" fill-rule="nonzero"/><path fill="#ffffff" d="M 94.085938 161.714844 C 94.070312 161.714844 94.054688 161.714844 94.035156 161.714844 C 92.644531 161.6875 91.539062 160.539062 91.566406 159.148438 C 91.679688 153.277344 88.167969 150.132812 84.847656 149.144531 C 81.511719 148.152344 76.816406 148.894531 73.652344 153.957031 C 72.914062 155.136719 71.359375 155.496094 70.179688 154.757812 C 69 154.019531 68.644531 152.46875 69.378906 151.289062 C 73.222656 145.140625 79.859375 142.40625 86.285156 144.316406 C 92.6875 146.21875 96.738281 152.078125 96.601562 159.242188 C 96.578125 160.617188 95.453125 161.714844 94.085938 161.714844 Z M 94.085938 161.714844 " fill-opacity="1" fill-rule="nonzero"/><path fill="#ffffff" d="M 94.085938 207.664062 C 92.863281 207.664062 91.792969 206.777344 91.597656 205.535156 C 90.417969 197.949219 85.035156 194.671875 80.390625 194.132812 C 75.792969 193.601562 69.34375 195.636719 66.308594 203.125 C 65.785156 204.414062 64.316406 205.039062 63.027344 204.515625 C 61.738281 203.992188 61.117188 202.523438 61.640625 201.234375 C 63.363281 196.980469 66.199219 193.605469 69.832031 191.476562 C 73.171875 189.519531 77.125 188.683594 80.972656 189.128906 C 89.117188 190.074219 95.242188 196.207031 96.578125 204.757812 C 96.789062 206.132812 95.851562 207.421875 94.476562 207.636719 C 94.34375 207.65625 94.214844 207.664062 94.085938 207.664062 Z M 94.085938 207.664062 " fill-opacity="1" fill-rule="nonzero"/><g fill="#ffffff" fill-opacity="1"><g transform="translate(203.807818, 247.229551)"><g><path d="M 17.90625 0 C 15.394531 0 13.265625 -0.875 11.515625 -2.625 C 9.765625 -4.375 8.890625 -6.503906 8.890625 -9.015625 L 8.890625 -74.71875 C 8.890625 -81.09375 10.300781 -86.769531 13.125 -91.75 C 15.945312 -96.726562 19.847656 -100.628906 24.828125 -103.453125 C 29.816406 -106.285156 35.5 -107.703125 41.875 -107.703125 L 52.5 -107.703125 C 58.875 -107.703125 64.550781 -106.285156 69.53125 -103.453125 C 74.507812 -100.628906 78.410156 -96.726562 81.234375 -91.75 C 84.066406 -86.769531 85.484375 -81.09375 85.484375 -74.71875 L 85.484375 -9.015625 C 85.484375 -6.503906 84.628906 -4.375 82.921875 -2.625 C 81.222656 -0.875 79.070312 0 76.46875 0 L 65.03125 0 C 62.507812 0 60.375 -0.875 58.625 -2.625 C 56.875 -4.375 56 -6.503906 56 -9.015625 L 56 -25.046875 C 56 -27.460938 55.144531 -29.523438 53.4375 -31.234375 C 51.738281 -32.941406 49.632812 -33.796875 47.125 -33.796875 C 44.695312 -33.796875 42.628906 -32.941406 40.921875 -31.234375 C 39.222656 -29.523438 38.375 -27.414062 38.375 -24.90625 L 38.375 -9.015625 C 38.375 -6.503906 37.519531 -4.375 35.8125 -2.625 C 34.101562 -0.875 31.945312 0 29.34375 0 Z M 47.125 -51.5625 C 49.632812 -51.5625 51.738281 -52.410156 53.4375 -54.109375 C 55.144531 -55.816406 56 -57.882812 56 -60.3125 L 56 -74.453125 C 56 -76.960938 55.144531 -79.066406 53.4375 -80.765625 C 51.738281 -82.472656 49.632812 -83.328125 47.125 -83.328125 C 44.695312 -83.328125 42.628906 -82.472656 40.921875 -80.765625 C 39.222656 -79.066406 38.375 -76.960938 38.375 -74.453125 L 38.375 -60.3125 C 38.375 -57.882812 39.222656 -55.816406 40.921875 -54.109375 C 42.628906 -52.410156 44.695312 -51.5625 47.125 -51.5625 Z M 47.125 -51.5625 "/></g></g></g><g fill="#ffffff" fill-opacity="1"><g transform="translate(298.169831, 247.229551)"><g><path d="M 17.90625 0 C 15.394531 0 13.265625 -0.875 11.515625 -2.625 C 9.765625 -4.375 8.890625 -6.503906 8.890625 -9.015625 L 8.890625 -98.6875 C 8.890625 -101.28125 9.765625 -103.429688 11.515625 -105.140625 C 13.265625 -106.847656 15.394531 -107.703125 17.90625 -107.703125 L 29.34375 -107.703125 C 31.945312 -107.703125 34.101562 -106.847656 35.8125 -105.140625 C 37.519531 -103.429688 38.375 -101.28125 38.375 -98.6875 L 38.375 -9.015625 C 38.375 -6.503906 37.519531 -4.375 35.8125 -2.625 C 34.101562 -0.875 31.945312 0 29.34375 0 Z M 17.90625 0 "/></g></g></g></svg>