<svg version="1.0" xmlns="http://www.w3.org/2000/svg"
 width="700.000000pt" height="499.000000pt" viewBox="0 0 700.000000 499.000000"
 preserveAspectRatio="xMidYMid meet">

<g transform="translate(0.000000,499.000000) scale(0.100000,-0.100000)"
fill="#000000" stroke="none">
<path d="M3281 4479 c-461 -52 -888 -262 -1211 -595 -168 -173 -262 -307 -365
-519 -269 -552 -269 -1197 0 -1750 420 -866 1385 -1303 2324 -1054 704 187
1253 755 1421 1473 67 281 67 631 0 912 -97 416 -332 801 -651 1068 -286 241
-607 389 -979 451 -114 20 -421 27 -539 14z m477 -314 c19 -6 7 -15 -75 -56
-345 -170 -571 -502 -599 -880 l-7 -91 -246 246 c-135 135 -249 246 -254 246
-4 0 -7 -466 -7 -1035 l0 -1035 155 0 155 0 0 668 0 667 294 -295 c231 -233
302 -310 335 -367 81 -137 118 -290 108 -443 -8 -113 -28 -187 -81 -295 -188
-382 -647 -535 -1031 -346 -103 51 -191 125 -290 242 -191 228 -312 477 -376
779 -20 91 -23 135 -23 320 0 185 3 229 23 320 93 433 312 782 656 1041 218
165 496 277 800 323 45 6 437 -1 463 -9z m567 -270 c39 -8 116 -37 175 -66 96
-47 115 -62 215 -163 131 -132 212 -244 295 -407 127 -249 182 -483 182 -769
0 -290 -56 -523 -187 -779 -136 -263 -363 -509 -610 -661 -165 -102 -359 -179
-555 -222 -91 -19 -134 -22 -325 -23 -121 0 -238 4 -260 8 l-40 9 70 30 c163
69 352 226 454 377 210 309 244 724 86 1058 -24 50 -57 112 -74 137 -17 24
-31 48 -31 53 0 4 92 100 205 213 l205 205 0 -668 0 -667 150 0 150 0 0 1037
0 1038 -459 -459 -459 -459 -27 48 c-73 124 -113 318 -95 460 14 110 34 175
86 275 98 190 288 339 499 391 88 22 255 24 350 4z"/>
</g>
</svg>
