<svg xmlns="http://www.w3.org/2000/svg" xmlns:xlink="http://www.w3.org/1999/xlink" width="500" zoomAndPan="magnify" viewBox="0 0 375 374.999991" height="500" preserveAspectRatio="xMidYMid meet" version="1.0"><defs><g/></defs><g fill="#ff914d" fill-opacity="1"><g transform="translate(41.460939, 167.564906)"><g><path d="M 1.59375 -130.859375 L 1.59375 -163.578125 L 116.59375 -163.578125 L 116.59375 -130.859375 L 77.71875 -130.859375 L 77.71875 0 L 40.453125 0 L 40.453125 -130.859375 Z M 1.59375 -130.859375 "/></g></g></g><g fill="#ff914d" fill-opacity="1"><g transform="translate(159.638597, 167.564906)"><g><path d="M 4.5625 -81.890625 C 4.5625 -105.546875 12.625 -125.570312 28.75 -141.96875 C 44.875 -158.363281 64.304688 -166.5625 87.046875 -166.5625 C 109.910156 -166.5625 129.335938 -158.394531 145.328125 -142.0625 C 161.328125 -125.738281 169.328125 -105.679688 169.328125 -81.890625 C 169.328125 -57.960938 161.460938 -37.835938 145.734375 -21.515625 C 130.003906 -5.191406 110.441406 2.96875 87.046875 2.96875 C 63.117188 2.96875 43.390625 -5.125 27.859375 -21.3125 C 12.328125 -37.507812 4.5625 -57.703125 4.5625 -81.890625 Z M 44.8125 -81.890625 C 44.8125 -73.296875 46.132812 -65.460938 48.78125 -58.390625 C 51.425781 -51.316406 56.050781 -45.332031 62.65625 -40.4375 C 69.269531 -35.550781 77.398438 -33.109375 87.046875 -33.109375 C 100.921875 -33.109375 111.394531 -37.867188 118.46875 -47.390625 C 125.539062 -56.910156 129.078125 -68.410156 129.078125 -81.890625 C 129.078125 -95.242188 125.472656 -106.710938 118.265625 -116.296875 C 111.066406 -125.878906 100.660156 -130.671875 87.046875 -130.671875 C 73.566406 -130.671875 63.15625 -125.878906 55.8125 -116.296875 C 48.476562 -106.710938 44.8125 -95.242188 44.8125 -81.890625 Z M 44.8125 -81.890625 "/></g></g></g><g fill="#ff914d" fill-opacity="1"><g transform="translate(32.636721, 367.814893)"><g><path d="M 49.171875 -101.515625 L 49.171875 0 L 11.890625 0 L 11.890625 -163.578125 L 49.171875 -163.578125 L 114.203125 -62.0625 L 114.609375 -62.0625 L 114.609375 -163.578125 L 151.890625 -163.578125 L 151.890625 0 L 114.609375 0 L 49.578125 -101.515625 Z M 49.171875 -101.515625 "/></g></g></g><g fill="#ff914d" fill-opacity="1"><g transform="translate(196.419835, 367.814893)"><g><path d="M -5.953125 -163.578125 L 38.859375 -163.578125 L 72.96875 -111.234375 L 107.078125 -163.578125 L 151.890625 -163.578125 L 91.609375 -73.359375 L 91.609375 0 L 54.328125 0 L 54.328125 -73.359375 Z M -5.953125 -163.578125 "/></g></g></g></svg>